<svg viewBox="0 0 281.11 441.67" xmlns="http://www.w3.org/2000/svg"><g fill="#020202" stroke="#000" stroke-miterlimit="10"><path d="m252.19 17.07-81.1 15.16-2.37-19.86c-.9-7.61-6.56-12.85-12.64-11.72l-47.51 8.89c-6.08 1.13-10.27 8.22-9.36 15.82l2.36 19.86-81.1 15.16c-12.79 2.39-21.62 17.32-19.71 33.34l1.73 14.51 278.06-52-1.73-14.5c-1.91-16-13.82-27.05-26.63-24.66zm-139.56 26.08-.48-4c-.9-7.6 3.29-14.69 9.36-15.83l25.4-4.74c6.07-1.14 11.73 4.11 12.64 11.71l.48 4z"/><path d="m250.55 120.67h-226.85c-8.24 0-14.77 6.08-14.3 13.29l9.27 275.79c1.15 17.64 17.77 31.42 37.89 31.42h160.33c20.11 0 36.73-13.78 37.89-31.42l10.06-275.75c.48-7.25-6.06-13.33-14.29-13.33zm-169.74 298.81c0 2.29-2.21 4.15-4.94 4.15h-14.08c-2.73 0-4.94-1.86-4.94-4.15v-270.11c0-2.3 2.21-4.16 4.94-4.16h14.08c2.73 0 4.94 1.86 4.94 4.16zm67.09 0c0 2.29-2.21 4.15-4.93 4.15h-14.09c-2.73 0-4.94-1.86-4.94-4.15v-270.11c0-2.3 2.21-4.16 4.94-4.16h14.12c2.72 0 4.93 1.86 4.93 4.16zm63.9 0c0 2.29-2.21 4.15-4.94 4.15h-14.08c-2.73 0-4.94-1.86-4.94-4.15v-270.11c0-2.3 2.21-4.16 4.94-4.16h14.08c2.73 0 4.94 1.86 4.94 4.16z"/></g></svg>