<svg xmlns="http://www.w3.org/2000/svg" viewBox="0 0 560.68 560.68"><defs><style>.cls-1{fill:#72ddfd;}</style></defs><g id="Layer_2" data-name="Layer 2"><g id="logo"><path class="cls-1" d="M355.28,280.34A75,75,0,1,1,299.5,207.9l54.68-47.62A140.92,140.92,0,1,0,399.4,204.9l-50.91,44.33A74.55,74.55,0,0,1,355.28,280.34Z"/><path class="cls-1" d="M505.14,112.82l-49.95,43.5A214.35,214.35,0,0,1,128.78,431.9,214.36,214.36,0,0,1,409.26,109.07l7.5-3.28,45-39.17A279.2,279.2,0,0,0,280.34,0C125.51,0,0,125.51,0,280.34S125.51,560.68,280.34,560.68,560.68,435.17,560.68,280.34A279,279,0,0,0,505.14,112.82Z"/></g></g></svg>